<?xml version="1.0" standalone="no"?>
<!DOCTYPE svg PUBLIC "-//W3C//DTD SVG 20010904//EN"
 "http://www.w3.org/TR/2001/REC-SVG-20010904/DTD/svg10.dtd">
<svg version="1.0" xmlns="http://www.w3.org/2000/svg"
 width="500.000000pt" height="500.000000pt" viewBox="0 0 500.000000 500.000000"
 preserveAspectRatio="xMidYMid meet">

<g transform="translate(0.000000,500.000000) scale(0.100000,-0.100000)"
fill="#000000" stroke="none">
<path d="M0 2500 l0 -2500 2500 0 2500 0 0 2500 0 2500 -2500 0 -2500 0 0
-2500z m2340 1315 l0 -25 -315 0 -315 0 0 -320 0 -320 -30 0 -30 0 0 345 0
345 345 0 345 0 0 -25z m294 -1092 c297 -803 303 -818 332 -852 14 -16 38 -32
54 -36 72 -16 19 -25 -140 -25 -166 0 -201 7 -140 29 24 8 30 16 30 40 0 23
-133 402 -202 574 l-11 27 -200 -2 -200 -3 -104 -288 c-97 -264 -104 -290 -93
-317 7 -16 21 -32 31 -35 49 -16 9 -25 -106 -25 -69 0 -125 4 -125 8 0 5 15
16 34 25 28 13 42 31 69 89 19 40 146 373 283 740 137 367 251 668 254 668 3
0 108 -278 234 -617z m716 -1123 l0 -420 -420 0 -420 0 0 35 0 35 385 0 385 0
0 385 0 385 35 0 35 0 0 -420z"/>
<path d="M2269 2794 l-86 -234 173 0 c96 0 174 1 174 3 0 7 -161 440 -168 453
-4 7 -44 -88 -93 -222z"/>
</g>
</svg>
